<?xml version="1.0" encoding="utf-8"?>
<!-- Generator: Adobe Illustrator 15.0.0, SVG Export Plug-In . SVG Version: 6.00 Build 0)  -->
<!DOCTYPE svg PUBLIC "-//W3C//DTD SVG 1.1//EN" "http://www.w3.org/Graphics/SVG/1.1/DTD/svg11.dtd">
<svg version="1.1" id="Layer_1" xmlns="http://www.w3.org/2000/svg" xmlns:xlink="http://www.w3.org/1999/xlink" x="0px" y="0px"
	 width="516.842px" height="138.947px" viewBox="0 0 516.842 138.947" enable-background="new 0 0 516.842 138.947"
	 xml:space="preserve">
<g>
	<polygon fill="#FFFFFF" points="10.435,42.94 61.935,10.882 110.368,38.337 110.368,51.836 110.368,101.532 60.71,127.915 
		11.646,100.919 	"/>
	<path fill="#C12A2D" d="M110.368,87.161v-5.676l-49.473,28.539L16.368,84.311v-5.698l44.527,25.779l49.473-28.539v-5.708
		l-49.473,28.54L16.368,72.905v-5.697l44.527,25.844l49.473-28.539v-5.708L60.896,87.344L16.368,61.499v-5.731l45.061,25.685
		l54.939-31.393V38.645l-54.5-31.394l-54.5,31.394v62.785l54.502,31.394l54.498-31.394V90.015L110.368,87.161z M35.718,32.736
		l14.829-8.955l12.356,7.134l12.359-7.134l14.829,8.955l-12.12,6.878l12.12,6.998l-14.829,8.562l-12.359-7.011l-12.356,7.011
		l-14.829-8.562l12.121-6.998L35.718,32.736z M110.368,92.868l-49.473,28.54L16.368,95.723v-5.705l44.527,25.714l49.473-28.539
		V92.868z"/>
	<g>
		<path fill="#FFFFFF" d="M137.671,39.68h37.902v9.827h-27.725v15.88h22.459v9.651h-22.459v15.529h27.725v9.826h-37.902V39.68z"/>
		<path fill="#FFFFFF" d="M186.537,39.68h16.76l13.772,46.149l13.775-46.149h16.67v60.713h-10.354V52.49h-1.227l-13.602,45.446
			h-10.527L198.116,52.49h-1.315v47.903h-10.264V39.68z"/>
	</g>
	<path fill="#FFFFFF" d="M258.804,50.34h10.878v13.072h-10.878V50.34z M258.804,76.661h10.878v13.073h-10.878V76.661z"/>
	<g>
		<path fill="#FFFFFF" d="M321.056,99.165c0,0-10.266,2.193-17.197,2.193c-18.336,0-22.547-10.528-22.547-31.233
			c0-22.109,5.351-31.409,22.547-31.409c7.635,0,17.285,2.369,17.285,2.369l-0.351,9.036c0,0-10.266-1.316-15.53-1.316
			c-10.615,0-13.336,5.088-13.336,21.32c0,15.441,2.107,21.145,13.687,21.145c4.738,0,15.18-1.404,15.18-1.404L321.056,99.165z"/>
		<path fill="#FFFFFF" d="M363.693,88.462c0.088,3.07,1.054,3.948,3.599,4.386l-0.353,8.511c-6.845,0-9.124-1.053-11.755-3.07
			c0,0-7.547,3.07-14.301,3.07c-8.338,0-12.723-5.352-12.723-14.037c0-9.388,5.176-12.635,14.652-13.336l10.879-0.877v-2.633
			c0-3.421-2.107-5.264-5.439-5.264c-6.492,0-16.934,0.79-16.934,0.79l-0.352-8.511c0,0,11.317-1.93,17.811-1.93
			c9.652,0,14.915,4.035,14.915,14.827V88.462z M344.04,81.442c-3.771,0.352-5.788,2.018-5.788,5.615
			c0,3.686,1.578,5.704,4.472,5.704c4.65,0,10.969-1.757,10.969-1.757V80.916L344.04,81.442z"/>
		<path fill="#FFFFFF" d="M377.03,100.394v-43.78h10v2.193c0,0,6.931-3.245,11.758-3.245c12.193,0,15.264,7.194,15.264,21.934
			v22.898H404.05V77.582c0-8.334-1.053-12.634-7.193-12.634c-3.86,0-9.826,2.018-9.826,2.018v33.428H377.03z"/>
		<path fill="#FFFFFF" d="M462.831,78.284c0,14.126-4.562,23.074-19.651,23.074c-15.092,0-19.741-8.773-19.741-23.074
			c0-14.038,4.914-22.723,19.741-22.723C457.743,55.561,462.831,64.334,462.831,78.284z M452.654,78.284
			c0-9.211-2.369-13.599-9.475-13.599c-7.458,0-9.562,4.212-9.562,13.599c0,9.475,1.753,14.038,9.562,14.038
			C450.987,92.322,452.654,87.584,452.654,78.284z"/>
		<path fill="#FFFFFF" d="M472.833,100.394v-43.78h10.001v2.193c0,0,6.931-3.245,11.759-3.245c12.194,0,15.265,7.194,15.265,21.934
			v22.898h-10.001V77.582c0-8.334-1.054-12.634-7.195-12.634c-3.859,0-9.827,2.018-9.827,2.018v33.428H472.833z"/>
	</g>
</g>
</svg>
