<?xml version="1.0" encoding="utf-8"?>
<!-- Generator: Adobe Illustrator 15.0.0, SVG Export Plug-In . SVG Version: 6.00 Build 0)  -->
<!DOCTYPE svg PUBLIC "-//W3C//DTD SVG 1.1//EN" "http://www.w3.org/Graphics/SVG/1.1/DTD/svg11.dtd">
<svg version="1.1" id="Layer_1" xmlns="http://www.w3.org/2000/svg" xmlns:xlink="http://www.w3.org/1999/xlink" x="0px" y="0px"
	 width="277.777px" height="354.762px" viewBox="0 0 277.777 354.762" enable-background="new 0 0 277.777 354.762"
	 xml:space="preserve">
<g>
	<polygon fill="#FFFFFF" points="32.498,84.143 140.913,16.824 242.889,74.478 242.889,102.823 242.889,207.18 138.343,262.581 
		35.174,205.891 	"/>
	<path fill="#C1272D" d="M242.889,177.001v-11.918l-103.693,59.929l-93.307-53.996v-11.964l93.307,54.133l103.693-59.929V141.27
		L139.195,201.2l-93.307-54.133v-11.964l93.307,54.269l103.693-59.929v-11.986l-103.693,59.929l-93.307-54.272V111.08l93.628,53.936
		l114.372-65.922V75.124L140.389,9.2l-113.5,65.923v131.842l113.505,65.921l113.495-65.921v-23.972L242.889,177.001z M85.591,62.716
		l31.138-18.804l25.947,14.981l25.954-14.981l31.139,18.804L174.316,77.16l25.452,14.693l-31.139,17.979L142.676,95.11
		l-25.947,14.722L85.591,91.854l25.451-14.693L85.591,62.716z M242.889,188.987l-103.693,59.929l-93.307-53.935V183l93.307,53.996
		l103.693-59.928V188.987z"/>
</g>
<g>
	<g>
		<path fill="#FFFFFF" d="M7.761,304.836h27.012v7.004H15.015v11.316h16.006v6.878H15.015v11.067h19.758v7.003H7.761V304.836z"/>
		<path fill="#FFFFFF" d="M42.586,304.836H54.53l9.815,32.89l9.817-32.89h11.88v43.269h-7.379v-34.14H77.79l-9.693,32.389h-7.502
			l-9.756-32.389h-0.938v34.14h-7.315V304.836z"/>
	</g>
	<path fill="#FFFFFF" d="M94.089,312.434h7.752v9.315h-7.752V312.434z M94.089,331.192h7.752v9.316h-7.752V331.192z"/>
	<g>
		<path fill="#FFFFFF" d="M138.453,347.229c0,0-7.315,1.563-12.256,1.563c-13.067,0-16.068-7.503-16.068-22.259
			c0-15.756,3.813-22.385,16.068-22.385c5.441,0,12.319,1.689,12.319,1.689l-0.25,6.439c0,0-7.316-0.938-11.068-0.938
			c-7.565,0-9.504,3.626-9.504,15.193c0,11.005,1.502,15.069,9.754,15.069c3.377,0,10.818-1.001,10.818-1.001L138.453,347.229z"/>
		<path fill="#FFFFFF" d="M168.84,339.602c0.062,2.188,0.751,2.813,2.564,3.125l-0.251,6.065c-4.878,0-6.502-0.75-8.377-2.188
			c0,0-5.379,2.188-10.192,2.188c-5.942,0-9.066-3.813-9.066-10.003c0-6.691,3.688-9.004,10.442-9.505l7.753-0.625v-1.876
			c0-2.438-1.502-3.752-3.877-3.752c-4.627,0-12.067,0.563-12.067,0.563l-0.251-6.065c0,0,8.065-1.375,12.692-1.375
			c6.879,0,10.63,2.875,10.63,10.566V339.602z M154.834,334.6c-2.688,0.25-4.125,1.438-4.125,4.002c0,2.625,1.124,4.064,3.187,4.064
			c3.314,0,7.817-1.252,7.817-1.252v-7.19L154.834,334.6z"/>
		<path fill="#FFFFFF" d="M178.345,348.105v-31.2h7.127v1.562c0,0,4.939-2.312,8.379-2.312c8.69,0,10.878,5.127,10.878,15.632
			v16.318h-7.128v-16.257c0-5.939-0.75-9.004-5.127-9.004c-2.75,0-7.002,1.438-7.002,1.438v23.823H178.345z"/>
		<path fill="#FFFFFF" d="M239.492,332.349c0,10.066-3.251,16.443-14.005,16.443c-10.756,0-14.068-6.252-14.068-16.443
			c0-10.005,3.502-16.194,14.068-16.194C235.866,316.155,239.492,322.407,239.492,332.349z M232.239,332.349
			c0-6.565-1.688-9.692-6.752-9.692c-5.314,0-6.814,3.002-6.814,9.692c0,6.752,1.249,10.004,6.814,10.004
			C231.052,342.353,232.239,338.976,232.239,332.349z"/>
		<path fill="#FFFFFF" d="M246.62,348.105v-31.2h7.128v1.562c0,0,4.938-2.312,8.38-2.312c8.69,0,10.879,5.127,10.879,15.632v16.318
			h-7.128v-16.257c0-5.939-0.751-9.004-5.128-9.004c-2.75,0-7.003,1.438-7.003,1.438v23.823H246.62z"/>
	</g>
</g>
</svg>
